<svg width="571" height="183" viewBox="0 0 571 183" fill="none" xmlns="http://www.w3.org/2000/svg">
<path d="M14.3566 69.295C14.1786 52.8799 24.2896 42.4017 41.2806 42.2174L48.4801 42.1394L48.7081 63.1621L45.2523 63.1996C39.4927 63.2621 37.0713 65.7365 37.1338 71.4961L37.1963 77.2558L47.1317 77.148L47.3534 97.5948L37.418 97.7026L38.0238 153.571L15.2731 153.818L14.6673 97.9493L5.73983 98.0461L5.51811 77.5993L14.4456 77.5025L14.3566 69.295ZM60.4865 153.328L59.6589 77.0122L82.4096 76.7655L83.2371 153.081L60.4865 153.328ZM59.5325 65.3489L59.2795 42.0223L82.0302 41.7755L82.2831 65.1022L59.5325 65.3489ZM89.0942 107.943C88.8725 87.4961 101.406 74.6874 122.141 74.4625C142.876 74.2377 155.685 86.7716 155.906 107.218L156.395 152.288L133.644 152.534L133.165 108.329C133.076 100.121 129.138 95.5559 122.371 95.6293C115.603 95.7027 111.765 100.353 111.854 108.56L112.334 152.766L89.5829 153.012L89.0942 107.943ZM177.218 153.214C172.898 153.261 167.278 152.89 161.654 152.231L161.445 132.936C167.79 133.731 172.402 134.113 175.714 134.077C181.618 134.013 184.05 132.547 184.017 129.523C183.991 127.075 182.239 124.934 177.305 121.387L172.805 118.124C163.951 111.739 160.286 105.731 160.194 97.2353C160.041 83.1241 170.175 74.8057 188.03 74.6121C191.774 74.5715 195.809 74.8158 200.28 75.4873L200.472 93.1983C196.29 92.6676 192.977 92.5595 191.105 92.5798C185.057 92.6454 182.193 94.1166 182.22 96.5644C182.238 98.2923 183.695 99.8606 188.483 103.121L192.546 105.957C202.993 113.188 207.388 120.053 207.486 129.124C207.649 144.099 196.512 153.005 177.218 153.214ZM211.847 180.488L210.707 75.3743L230.866 75.1557L231.085 82.0657C236.209 76.5378 244.53 73.5674 253.025 73.4753C273.616 73.252 291.214 89.1901 291.468 112.661C291.723 136.131 274.475 152.447 253.884 152.671C246.396 152.752 239.029 150.672 233.799 146.408C234.155 152.741 234.374 159.651 234.443 165.986L234.598 180.241L211.847 180.488ZM232.432 113.301C232.557 124.82 240.268 132.081 250.635 131.969C261.147 131.855 268.842 124.427 268.718 112.907C268.593 101.388 260.737 94.1289 250.226 94.2429C239.859 94.3553 232.307 101.782 232.432 113.301ZM295.702 150.777L294.495 39.4716L317.246 39.2249L318.453 150.53L295.702 150.777ZM360.309 151.517C339.719 151.74 322.121 135.802 321.866 112.331C321.612 88.8605 338.86 72.5445 359.451 72.3212C367.946 72.2291 376.329 75.0184 381.572 80.4339L381.641 73.5207L401.8 73.3021L402.627 149.618L382.468 149.836L382.249 142.926C377.125 148.454 368.805 151.424 360.309 151.517ZM344.617 112.084C344.742 123.604 352.597 130.863 363.108 130.749C373.476 130.637 381.028 123.21 380.903 111.691C380.778 100.172 373.067 92.9108 362.699 93.0232C352.188 93.1372 344.492 100.565 344.617 112.084ZM424.315 150.535C419.995 150.581 414.375 150.21 408.751 149.551L408.542 130.256C414.887 131.052 419.5 131.434 422.811 131.398C428.715 131.334 431.147 129.867 431.114 126.843C431.088 124.396 429.337 122.254 424.402 118.708L419.902 115.444C411.048 109.06 407.383 103.051 407.291 94.5558C407.138 80.4446 417.272 72.1263 435.127 71.9327C438.871 71.8921 442.906 72.1363 447.378 72.8079L447.57 90.5188C443.388 89.9881 440.074 89.8801 438.202 89.9004C432.155 89.9659 429.29 91.4371 429.317 93.8849C429.336 95.6128 430.793 97.1811 435.58 100.441L439.643 103.278C450.09 110.509 454.485 117.373 454.584 126.445C454.746 141.42 443.61 150.325 424.315 150.535ZM458.632 149.01L457.425 37.7049L480.176 37.4582L480.396 57.761C480.468 64.3846 480.397 71.1537 480.319 77.2029C484.448 72.8379 490.758 70.4653 498.102 70.3857C514.949 70.203 524.726 82.0497 524.951 102.784L525.444 148.286L502.693 148.533L502.217 104.615C502.124 95.9756 498.475 91.5509 491.708 91.6243C484.652 91.7008 480.813 96.2067 480.907 104.846L481.383 148.764L458.632 149.01Z" fill="black"/>
<path d="M537.96 70.76C525.24 70.76 516.12 61.48 516.12 48.84C516.12 36.12 525.24 26.84 537.96 26.84C550.76 26.84 559.96 36.12 559.96 48.84C559.96 61.48 550.76 70.76 537.96 70.76ZM520.84 48.84C520.84 58.84 527.96 66.28 537.96 66.28C548.04 66.28 555.16 58.84 555.16 48.84C555.16 38.76 548.04 31.4 537.96 31.4C527.96 31.4 520.84 38.76 520.84 48.84ZM530.28 59.88V36.28H538.36C543.64 36.28 546.76 38.76 546.76 43.16C546.76 46.92 544.36 49.4 540.2 49.96L547.8 59.88H542.2L535.08 49.96V59.88H530.28ZM535.08 46.68H537.96C540.44 46.68 541.88 45.64 541.88 43.48C541.88 41.4 540.44 40.36 537.96 40.36H535.08V46.68Z" fill="black"/>
</svg>
