<svg width="612" height="167" viewBox="0 0 612 167" fill="none" xmlns="http://www.w3.org/2000/svg">
<path d="M9.9345 55.9782L9.78617 42.299C9.73412 37.4992 10.6931 32.9766 12.6632 28.731C14.7283 24.3883 17.4715 20.6143 20.8929 17.4091C24.4104 14.2027 28.4631 11.6626 33.051 9.78878C37.7339 7.81788 42.6672 6.80433 47.8509 6.74812C53.0346 6.69191 57.9402 7.55077 62.5677 9.32469C67.2912 11.0976 71.3981 13.5492 74.8882 16.6795C78.4743 19.8088 81.2988 23.5224 83.3615 27.8203C85.5192 32.0212 86.6246 36.5694 86.6776 41.4652L86.7136 44.777L60.6511 45.0596L60.6152 41.7478C60.5964 40.0199 60.2428 38.3916 59.5542 36.863C58.9605 35.2373 58.0809 33.8068 56.9155 32.5714C55.846 31.3349 54.5391 30.341 52.9949 29.5897C51.5467 28.8373 49.9106 28.4711 48.0867 28.4908C44.5349 28.5294 41.5737 29.9055 39.2029 32.6194C36.9282 35.3322 35.8101 38.4645 35.8486 42.0163L35.997 55.6955L50.9721 55.5332L51.2079 77.2759L36.2327 77.4383L36.798 129.563L10.7355 129.846L10.1703 77.7209L0.810824 77.8224L0.575051 56.0796L9.9345 55.9782ZM87.627 129.012L61.5645 129.295L60.7635 55.427L86.826 55.1444L87.627 129.012ZM96.0201 55.0447L122.083 54.762L122.184 64.1215C125.689 59.7632 129.258 56.8444 132.89 55.3649C136.521 53.7894 140.784 52.9752 145.68 52.9221C150.864 52.8659 155.289 53.6819 158.955 55.3703C162.717 56.9616 165.91 59.2791 168.535 62.3228C170.674 64.7957 172.144 67.564 172.946 70.6275C173.747 73.691 174.169 77.1906 174.211 81.1264L174.72 128.068L148.658 128.35L148.254 91.0564C148.214 87.4086 147.894 84.4839 147.294 82.2823C146.789 79.9836 145.858 78.1696 144.499 76.8403C143.335 75.7008 142.03 74.8989 140.585 74.4346C139.14 73.9702 137.601 73.7469 135.969 73.7646C131.554 73.8125 128.16 75.1933 125.79 77.9072C123.514 80.524 122.403 84.2803 122.456 89.176L122.884 128.63L96.8211 128.912L96.0201 55.0447ZM232.163 72.5775C227.336 70.1337 222.619 68.9367 218.011 68.9867C215.612 69.0127 213.649 69.514 212.123 70.4906C210.694 71.4662 209.988 72.7699 210.006 74.4018C210.015 75.2658 210.119 75.9847 210.317 76.5586C210.61 77.0354 211.143 77.5097 211.917 77.9813C212.786 78.4519 213.99 78.8709 215.53 79.2382C217.166 79.6045 219.284 80.0616 221.882 80.6094C229.097 81.9713 234.501 84.5048 238.093 88.2101C241.684 91.8194 243.511 96.5038 243.574 102.263C243.621 106.583 242.799 110.48 241.108 113.955C239.418 117.429 237.05 120.383 234.004 122.816C230.957 125.154 227.281 126.97 222.974 128.264C218.669 129.655 213.925 130.379 208.741 130.435C198.758 130.543 188.888 127.818 179.131 122.259L188.434 103.725C195.784 108.638 202.723 111.059 209.25 110.988C211.65 110.962 213.612 110.413 215.137 109.34C216.661 108.268 217.415 106.915 217.397 105.284C217.387 104.324 217.234 103.557 216.94 102.984C216.741 102.314 216.255 101.744 215.481 101.272C214.707 100.704 213.55 100.237 212.01 99.8696C210.565 99.4052 208.64 98.9461 206.235 98.4921C198.153 96.9477 192.464 94.6092 189.166 91.4768C185.962 88.2474 184.33 83.8008 184.269 78.1371C184.224 74.0094 184.952 70.3053 186.452 67.0248C187.952 63.6483 190.129 60.7926 192.984 58.4575C195.839 56.1224 199.275 54.309 203.293 53.0174C207.408 51.7247 211.961 51.0513 216.952 50.9971C225.112 50.9087 233.049 52.4067 240.762 55.4912L232.163 72.5775ZM306.917 89.9119C306.892 87.6081 306.437 85.4529 305.551 83.4464C304.76 81.3428 303.588 79.5314 302.036 78.0122C300.483 76.4929 298.646 75.3128 296.525 74.4717C294.499 73.5336 292.286 73.0776 289.886 73.1036C287.582 73.1286 285.427 73.584 283.42 74.4698C281.414 75.3556 279.651 76.5748 278.132 78.1274C276.708 79.6789 275.528 81.5158 274.591 83.6381C273.749 85.6633 273.341 87.8279 273.366 90.1317C273.391 92.4356 273.846 94.5908 274.732 96.5973C275.618 98.6038 276.837 100.367 278.389 101.886C279.941 103.309 281.73 104.49 283.756 105.428C285.877 106.269 288.09 106.677 290.394 106.652C292.698 106.627 294.853 106.172 296.859 105.286C298.866 104.4 300.581 103.181 302.004 101.63C303.523 100.077 304.704 98.2884 305.546 96.2632C306.484 94.2369 306.941 92.1198 306.917 89.9119ZM274.885 163.848L248.823 164.13L247.622 53.4007L273.684 53.1181L273.773 61.3256C279.265 54.2577 286.81 50.6716 296.41 50.5675C301.69 50.5103 306.597 51.5131 311.131 53.5761C315.761 55.542 319.775 58.2826 323.173 61.798C326.572 65.3134 329.209 69.461 331.085 74.241C333.057 79.0199 334.072 84.1451 334.132 89.6168C334.191 95.0885 333.286 100.187 331.417 104.911C329.644 109.635 327.097 113.791 323.776 117.379C320.551 120.966 316.693 123.792 312.203 125.857C307.713 127.922 302.829 128.983 297.549 129.04C288.333 129.14 280.62 126.055 274.407 119.786L274.885 163.848ZM365.513 6.47166L366.809 125.985L340.746 126.267L339.45 6.75427L365.513 6.47166ZM399.767 88.4731C399.793 90.8729 400.249 93.1241 401.136 95.2266C402.022 97.2331 403.193 98.9965 404.65 100.517C406.202 102.036 407.991 103.217 410.016 104.059C412.138 104.9 414.398 105.307 416.798 105.281C419.102 105.256 421.257 104.801 423.264 103.915C425.366 103.028 427.129 101.809 428.552 100.258C430.071 98.7051 431.252 96.9162 432.094 94.8909C433.032 92.8646 433.489 90.6995 433.464 88.3957C433.439 86.0918 432.936 83.9371 431.954 81.9317C431.067 79.8292 429.847 78.0183 428.295 76.499C426.838 74.9787 425.049 73.7981 422.928 72.957C420.903 72.1149 418.738 71.7064 416.434 71.7313C414.034 71.7574 411.783 72.2138 409.681 73.1007C407.674 73.9865 405.911 75.2057 404.392 76.7582C402.969 78.3097 401.836 80.0981 400.994 82.1234C400.151 84.0526 399.742 86.1692 399.767 88.4731ZM432.199 51.3992L458.405 51.115L459.206 124.983L433 125.267L432.911 117.059C427.419 124.127 419.921 127.713 410.418 127.816C405.042 127.874 400.088 126.968 395.556 125.097C391.022 123.13 387.056 120.389 383.658 116.873C380.259 113.358 377.574 109.211 375.602 104.432C373.726 99.6521 372.758 94.4303 372.696 88.7666C372.639 83.4869 373.497 78.4853 375.27 73.7618C377.042 68.9423 379.54 64.739 382.766 61.1518C385.991 57.5646 389.848 54.7386 394.338 52.6738C398.827 50.513 403.807 49.4029 409.279 49.3436C418.494 49.2437 426.161 52.3767 432.278 58.7428L432.199 51.3992ZM516.665 69.4924C511.838 67.0486 507.121 65.8517 502.513 65.9016C500.113 65.9277 498.15 66.429 496.625 67.4056C495.195 68.3811 494.489 69.6849 494.507 71.3168C494.516 72.1807 494.62 72.8996 494.818 73.4735C495.112 73.9504 495.645 74.4246 496.418 74.8963C497.287 75.3669 498.492 75.7858 500.032 76.1531C501.668 76.5194 503.785 76.9765 506.383 77.5244C513.598 78.8862 519.002 81.4198 522.594 85.125C526.186 88.7343 528.013 93.4188 528.075 99.1784C528.122 103.498 527.3 107.395 525.61 110.87C523.919 114.344 521.551 117.298 518.505 119.731C515.459 122.069 511.782 123.885 507.476 125.179C503.171 126.57 498.426 127.294 493.243 127.35C483.259 127.458 473.389 124.733 463.632 119.174L472.936 100.64C480.285 105.553 487.224 107.974 493.752 107.903C496.152 107.877 498.114 107.328 499.638 106.255C501.163 105.183 501.916 103.83 501.898 102.198C501.888 101.239 501.736 100.472 501.441 99.8993C501.242 99.2294 500.756 98.6586 499.983 98.187C499.209 97.6193 498.051 97.1519 496.511 96.7845C495.066 96.3202 493.141 95.861 490.736 95.4071C482.655 93.8626 476.965 91.5242 473.667 88.3917C470.464 85.1623 468.831 80.7157 468.77 75.0521C468.725 70.9243 469.453 67.2202 470.954 63.9397C472.453 60.5633 474.63 57.7075 477.485 55.3724C480.34 53.0373 483.777 51.2239 487.795 49.9323C491.909 48.6396 496.462 47.9662 501.454 47.9121C509.613 47.8236 517.55 49.3216 525.264 52.4062L516.665 69.4924ZM531.628 4.67034L557.691 4.38772L558.287 59.3925C561.792 55.0342 565.361 52.1154 568.993 50.6359C572.624 49.0604 576.887 48.2461 581.783 48.1931C591.095 48.0921 598.13 50.608 602.89 55.7406C607.745 60.7763 610.22 67.6619 610.315 76.3974L610.824 123.339L584.761 123.621L584.357 86.3274C584.316 82.5836 583.995 79.5629 583.394 77.2653C582.793 74.9677 581.814 73.2022 580.457 71.9688C578.131 69.9779 575.336 69.0002 572.073 69.0356C567.657 69.0835 564.264 70.4643 561.893 73.1782C559.617 75.795 558.506 79.5513 558.559 84.447L558.987 123.901L532.924 124.183L531.628 4.67034Z" fill="black"/>
</svg>
